<?xml version="1.0" encoding="UTF-8"?>
<svg xmlns="http://www.w3.org/2000/svg" width="940" height="500" viewBox="0 0 940 500" role="img" aria-label="The budget boundary alpha*(k_max) against the textbook mean rule">
<title>The budget boundary alpha*(k_max) against the textbook mean rule</title>
<rect width="940" height="500" fill="#ffffff"/>
<line x1="84.00" y1="430.00" x2="914.00" y2="430.00" stroke="#dddddd" stroke-width="1" stroke-dasharray="3 4"/><line x1="84.00" y1="355.00" x2="914.00" y2="355.00" stroke="#dddddd" stroke-width="1" stroke-dasharray="3 4"/><line x1="84.00" y1="280.00" x2="914.00" y2="280.00" stroke="#dddddd" stroke-width="1" stroke-dasharray="3 4"/><line x1="84.00" y1="205.00" x2="914.00" y2="205.00" stroke="#dddddd" stroke-width="1" stroke-dasharray="3 4"/><line x1="84.00" y1="130.00" x2="914.00" y2="130.00" stroke="#dddddd" stroke-width="1" stroke-dasharray="3 4"/><line x1="84.00" y1="55.00" x2="914.00" y2="55.00" stroke="#dddddd" stroke-width="1" stroke-dasharray="3 4"/><rect x="84.00" y="40.00" width="830.00" height="390.00" fill="none" stroke="#333333" stroke-width="1.4"/><line x1="126.93" y1="430.00" x2="126.93" y2="435.00" stroke="#333333" stroke-width="1.2"/><text x="126.93" y="448.00" font-family="Helvetica, Arial, sans-serif" font-size="11" fill="#666666" text-anchor="middle" font-weight="normal">2</text><line x1="270.03" y1="430.00" x2="270.03" y2="435.00" stroke="#333333" stroke-width="1.2"/><text x="270.03" y="448.00" font-family="Helvetica, Arial, sans-serif" font-size="11" fill="#666666" text-anchor="middle" font-weight="normal">4</text><line x1="413.14" y1="430.00" x2="413.14" y2="435.00" stroke="#333333" stroke-width="1.2"/><text x="413.14" y="448.00" font-family="Helvetica, Arial, sans-serif" font-size="11" fill="#666666" text-anchor="middle" font-weight="normal">8</text><line x1="556.24" y1="430.00" x2="556.24" y2="435.00" stroke="#333333" stroke-width="1.2"/><text x="556.24" y="448.00" font-family="Helvetica, Arial, sans-serif" font-size="11" fill="#666666" text-anchor="middle" font-weight="normal">16</text><line x1="699.34" y1="430.00" x2="699.34" y2="435.00" stroke="#333333" stroke-width="1.2"/><text x="699.34" y="448.00" font-family="Helvetica, Arial, sans-serif" font-size="11" fill="#666666" text-anchor="middle" font-weight="normal">32</text><line x1="842.45" y1="430.00" x2="842.45" y2="435.00" stroke="#333333" stroke-width="1.2"/><text x="842.45" y="448.00" font-family="Helvetica, Arial, sans-serif" font-size="11" fill="#666666" text-anchor="middle" font-weight="normal">64</text><line x1="79.00" y1="430.00" x2="84.00" y2="430.00" stroke="#333333" stroke-width="1.2"/><text x="75.00" y="434.00" font-family="Helvetica, Arial, sans-serif" font-size="11" fill="#666666" text-anchor="end" font-weight="normal">0</text><line x1="79.00" y1="355.00" x2="84.00" y2="355.00" stroke="#333333" stroke-width="1.2"/><text x="75.00" y="359.00" font-family="Helvetica, Arial, sans-serif" font-size="11" fill="#666666" text-anchor="end" font-weight="normal">0.2</text><line x1="79.00" y1="280.00" x2="84.00" y2="280.00" stroke="#333333" stroke-width="1.2"/><text x="75.00" y="284.00" font-family="Helvetica, Arial, sans-serif" font-size="11" fill="#666666" text-anchor="end" font-weight="normal">0.4</text><line x1="79.00" y1="205.00" x2="84.00" y2="205.00" stroke="#333333" stroke-width="1.2"/><text x="75.00" y="209.00" font-family="Helvetica, Arial, sans-serif" font-size="11" fill="#666666" text-anchor="end" font-weight="normal">0.6</text><line x1="79.00" y1="130.00" x2="84.00" y2="130.00" stroke="#333333" stroke-width="1.2"/><text x="75.00" y="134.00" font-family="Helvetica, Arial, sans-serif" font-size="11" fill="#666666" text-anchor="end" font-weight="normal">0.8</text><line x1="79.00" y1="55.00" x2="84.00" y2="55.00" stroke="#333333" stroke-width="1.2"/><text x="75.00" y="59.00" font-family="Helvetica, Arial, sans-serif" font-size="11" fill="#666666" text-anchor="end" font-weight="normal">1</text><text x="499.00" y="478.00" font-family="Helvetica, Arial, sans-serif" font-size="13" fill="#222222" text-anchor="middle" font-weight="normal">probe budget  k_max  (probes per operation, log scale)</text><text x="22.00" y="235.00" font-family="Helvetica, Arial, sans-serif" font-size="13" fill="#222222" text-anchor="middle" font-weight="normal" transform="rotate(-90 22.00 235.00)">load factor at the budget boundary   alpha*(k)</text><polyline fill="none" points="126.93,271.51 270.03,196.74 413.14,151.82 556.24,122.35 699.34,102.25 842.45,88.28" stroke="#7f7f7f" stroke-width="2" stroke-dasharray="7 5" opacity="1" stroke-linejoin="round"/><polyline fill="none" points="126.93,420.59 270.03,382.86 413.14,326.07 556.24,260.30 699.34,211.06 842.45,167.34" stroke="#1f77b4" stroke-width="2.6" opacity="1" stroke-linejoin="round"/><circle cx="126.93" cy="420.59" r="3.6" fill="#1f77b4" stroke="#ffffff" stroke-width="1"/><circle cx="270.03" cy="382.86" r="3.6" fill="#1f77b4" stroke="#ffffff" stroke-width="1"/><circle cx="413.14" cy="326.07" r="3.6" fill="#1f77b4" stroke="#ffffff" stroke-width="1"/><circle cx="556.24" cy="260.30" r="3.6" fill="#1f77b4" stroke="#ffffff" stroke-width="1"/><circle cx="699.34" cy="211.06" r="3.6" fill="#1f77b4" stroke="#ffffff" stroke-width="1"/><circle cx="842.45" cy="167.34" r="3.6" fill="#1f77b4" stroke="#ffffff" stroke-width="1"/><polyline fill="none" points="126.93,413.59 270.03,314.43 413.14,203.12 556.24,127.37" stroke="#d62728" stroke-width="2.6" opacity="1" stroke-linejoin="round"/><circle cx="126.93" cy="413.59" r="3.6" fill="#d62728" stroke="#ffffff" stroke-width="1"/><circle cx="270.03" cy="314.43" r="3.6" fill="#d62728" stroke="#ffffff" stroke-width="1"/><circle cx="413.14" cy="203.12" r="3.6" fill="#d62728" stroke="#ffffff" stroke-width="1"/><circle cx="556.24" cy="127.37" r="3.6" fill="#d62728" stroke="#ffffff" stroke-width="1"/><line x1="270.03" y1="382.86" x2="270.03" y2="196.74" stroke="#b8860b" stroke-width="1.6" stroke-dasharray="4 3" opacity="1"/><text x="280.03" y="289.80" font-family="Helvetica, Arial, sans-serif" font-size="11.5" fill="#b8860b" text-anchor="start" font-weight="normal">the budget-mean gap</text><text x="599.17" y="317.50" font-family="Helvetica, Arial, sans-serif" font-size="12" fill="#7f7f7f" text-anchor="start" font-weight="bold">A = 1 - 1/sqrt(2k-1)  (textbook mean rule)</text><text x="599.17" y="349.38" font-family="Helvetica, Arial, sans-serif" font-size="12" fill="#d62728" text-anchor="start" font-weight="bold">Robin Hood</text><text x="599.17" y="381.25" font-family="Helvetica, Arial, sans-serif" font-size="12" fill="#1f77b4" text-anchor="start" font-weight="bold">linear probing</text><text x="86.86" y="58.75" font-family="Helvetica, Arial, sans-serif" font-size="11.5" fill="#222222" text-anchor="start" font-weight="normal">linear|uniform, level = 1e-3, m = 65536: the textbook rule overstates the safe load at every bracketed k</text><text x="358.76" y="405.62" font-family="Helvetica, Arial, sans-serif" font-size="10.5" fill="#666666" text-anchor="start" font-weight="normal">robinhood: alpha* undefined at k &gt;= 32 (above the grid ceiling) -- written, not plotted</text>
</svg>
