<?xml version="1.0" encoding="UTF-8"?>
<svg xmlns="http://www.w3.org/2000/svg" width="940" height="470" viewBox="0 0 940 470" role="img" aria-label="The frame level moves the flag count; the band of blindness is theta/s wide">
<title>The frame level moves the flag count; the band of blindness is theta/s wide</title>
<rect width="940" height="470" fill="#ffffff"/>
<line x1="84.00" y1="400.00" x2="914.00" y2="400.00" stroke="#dddddd" stroke-width="1" stroke-dasharray="3 4"/><line x1="84.00" y1="328.00" x2="914.00" y2="328.00" stroke="#dddddd" stroke-width="1" stroke-dasharray="3 4"/><line x1="84.00" y1="256.00" x2="914.00" y2="256.00" stroke="#dddddd" stroke-width="1" stroke-dasharray="3 4"/><line x1="84.00" y1="184.00" x2="914.00" y2="184.00" stroke="#dddddd" stroke-width="1" stroke-dasharray="3 4"/><line x1="84.00" y1="112.00" x2="914.00" y2="112.00" stroke="#dddddd" stroke-width="1" stroke-dasharray="3 4"/><line x1="84.00" y1="54.40" x2="914.00" y2="54.40" stroke="#dddddd" stroke-width="1" stroke-dasharray="3 4"/><rect x="84.00" y="40.00" width="830.00" height="360.00" fill="none" stroke="#333333" stroke-width="1.4"/><line x1="84.00" y1="400.00" x2="84.00" y2="405.00" stroke="#333333" stroke-width="1.2"/><text x="84.00" y="418.00" font-family="Helvetica, Arial, sans-serif" font-size="11" fill="#666666" text-anchor="middle" font-weight="normal">0</text><line x1="242.10" y1="400.00" x2="242.10" y2="405.00" stroke="#333333" stroke-width="1.2"/><text x="242.10" y="418.00" font-family="Helvetica, Arial, sans-serif" font-size="11" fill="#666666" text-anchor="middle" font-weight="normal">0.2</text><line x1="400.19" y1="400.00" x2="400.19" y2="405.00" stroke="#333333" stroke-width="1.2"/><text x="400.19" y="418.00" font-family="Helvetica, Arial, sans-serif" font-size="11" fill="#666666" text-anchor="middle" font-weight="normal">0.4</text><line x1="558.29" y1="400.00" x2="558.29" y2="405.00" stroke="#333333" stroke-width="1.2"/><text x="558.29" y="418.00" font-family="Helvetica, Arial, sans-serif" font-size="11" fill="#666666" text-anchor="middle" font-weight="normal">0.6</text><line x1="716.38" y1="400.00" x2="716.38" y2="405.00" stroke="#333333" stroke-width="1.2"/><text x="716.38" y="418.00" font-family="Helvetica, Arial, sans-serif" font-size="11" fill="#666666" text-anchor="middle" font-weight="normal">0.8</text><line x1="874.48" y1="400.00" x2="874.48" y2="405.00" stroke="#333333" stroke-width="1.2"/><text x="874.48" y="418.00" font-family="Helvetica, Arial, sans-serif" font-size="11" fill="#666666" text-anchor="middle" font-weight="normal">1</text><line x1="79.00" y1="400.00" x2="84.00" y2="400.00" stroke="#333333" stroke-width="1.2"/><text x="75.00" y="404.00" font-family="Helvetica, Arial, sans-serif" font-size="11" fill="#666666" text-anchor="end" font-weight="normal">0</text><line x1="79.00" y1="328.00" x2="84.00" y2="328.00" stroke="#333333" stroke-width="1.2"/><text x="75.00" y="332.00" font-family="Helvetica, Arial, sans-serif" font-size="11" fill="#666666" text-anchor="end" font-weight="normal">25</text><line x1="79.00" y1="256.00" x2="84.00" y2="256.00" stroke="#333333" stroke-width="1.2"/><text x="75.00" y="260.00" font-family="Helvetica, Arial, sans-serif" font-size="11" fill="#666666" text-anchor="end" font-weight="normal">50</text><line x1="79.00" y1="184.00" x2="84.00" y2="184.00" stroke="#333333" stroke-width="1.2"/><text x="75.00" y="188.00" font-family="Helvetica, Arial, sans-serif" font-size="11" fill="#666666" text-anchor="end" font-weight="normal">75</text><line x1="79.00" y1="112.00" x2="84.00" y2="112.00" stroke="#333333" stroke-width="1.2"/><text x="75.00" y="116.00" font-family="Helvetica, Arial, sans-serif" font-size="11" fill="#666666" text-anchor="end" font-weight="normal">100</text><line x1="79.00" y1="54.40" x2="84.00" y2="54.40" stroke="#333333" stroke-width="1.2"/><text x="75.00" y="58.40" font-family="Helvetica, Arial, sans-serif" font-size="11" fill="#666666" text-anchor="end" font-weight="normal">120</text><text x="499.00" y="448.00" font-family="Helvetica, Arial, sans-serif" font-size="13" fill="#222222" text-anchor="middle" font-weight="normal">register prevalence in the community  phi</text><text x="22.00" y="220.00" font-family="Helvetica, Arial, sans-serif" font-size="13" fill="#222222" text-anchor="middle" font-weight="normal" transform="rotate(-90 22.00 220.00)">level-induced flag count</text><polyline fill="none" points="84.00,400.00 123.52,54.40 163.05,54.40 202.57,54.40 242.10,91.84 321.14,400.00 479.24,400.00 874.48,400.00" stroke="#1f77b4" stroke-width="2.4" opacity="1" stroke-linejoin="round"/><circle cx="84.00" cy="400.00" r="3.6" fill="#1f77b4" stroke="#ffffff" stroke-width="1"/><circle cx="123.52" cy="54.40" r="3.6" fill="#1f77b4" stroke="#ffffff" stroke-width="1"/><circle cx="163.05" cy="54.40" r="3.6" fill="#1f77b4" stroke="#ffffff" stroke-width="1"/><circle cx="202.57" cy="54.40" r="3.6" fill="#1f77b4" stroke="#ffffff" stroke-width="1"/><circle cx="242.10" cy="91.84" r="3.6" fill="#1f77b4" stroke="#ffffff" stroke-width="1"/><circle cx="321.14" cy="400.00" r="3.6" fill="#1f77b4" stroke="#ffffff" stroke-width="1"/><circle cx="479.24" cy="400.00" r="3.6" fill="#1f77b4" stroke="#ffffff" stroke-width="1"/><circle cx="874.48" cy="400.00" r="3.6" fill="#1f77b4" stroke="#ffffff" stroke-width="1"/><line x1="303.54" y1="400.00" x2="303.54" y2="40.00" stroke="#1f77b4" stroke-width="1.4" stroke-dasharray="5 4" opacity="0.75"/><text x="303.54" y="60.16" font-family="Helvetica, Arial, sans-serif" font-size="11" fill="#1f77b4" text-anchor="middle" font-weight="normal">phi* = 0.278</text><polyline fill="none" points="84.00,400.00 123.52,353.92 163.05,353.92 202.57,400.00 242.10,400.00 321.14,400.00 479.24,400.00 874.48,400.00" stroke="#d62728" stroke-width="2.4" opacity="1" stroke-linejoin="round"/><circle cx="84.00" cy="400.00" r="3.6" fill="#d62728" stroke="#ffffff" stroke-width="1"/><circle cx="123.52" cy="353.92" r="3.6" fill="#d62728" stroke="#ffffff" stroke-width="1"/><circle cx="163.05" cy="353.92" r="3.6" fill="#d62728" stroke="#ffffff" stroke-width="1"/><circle cx="202.57" cy="400.00" r="3.6" fill="#d62728" stroke="#ffffff" stroke-width="1"/><circle cx="242.10" cy="400.00" r="3.6" fill="#d62728" stroke="#ffffff" stroke-width="1"/><circle cx="321.14" cy="400.00" r="3.6" fill="#d62728" stroke="#ffffff" stroke-width="1"/><circle cx="479.24" cy="400.00" r="3.6" fill="#d62728" stroke="#ffffff" stroke-width="1"/><circle cx="874.48" cy="400.00" r="3.6" fill="#d62728" stroke="#ffffff" stroke-width="1"/><line x1="176.89" y1="400.00" x2="176.89" y2="40.00" stroke="#d62728" stroke-width="1.4" stroke-dasharray="5 4" opacity="0.75"/><text x="176.89" y="60.16" font-family="Helvetica, Arial, sans-serif" font-size="11" fill="#d62728" text-anchor="middle" font-weight="normal">phi* = 0.118</text><text x="131.43" y="77.44" font-family="Helvetica, Arial, sans-serif" font-size="11.5" fill="#222222" text-anchor="start" font-weight="normal">word-3, tau = 0.5, theta = 0.05: below phi* the corpus frame fires on 120/120, the community frame on 0/120</text><text x="131.43" y="109.12" font-family="Helvetica, Arial, sans-serif" font-size="11.5" fill="#666666" text-anchor="start" font-weight="normal">above phi* the register is IN the corpus frame and the induced count is 0</text><text x="99.81" y="227.20" font-family="Helvetica, Arial, sans-serif" font-size="12.5" fill="#1f77b4" text-anchor="start" font-weight="bold">Italian</text><text x="99.81" y="313.60" font-family="Helvetica, Arial, sans-serif" font-size="12.5" fill="#d62728" text-anchor="start" font-weight="bold">English</text>
</svg>
