<?xml version="1.0" encoding="UTF-8"?>
<svg xmlns="http://www.w3.org/2000/svg" width="900" height="470" viewBox="0 0 900 470" role="img" aria-label="The residue threshold is a boundary, and the boundary is derived">
<title>The residue threshold is a boundary, and the boundary is derived</title>
<rect width="900" height="470" fill="#ffffff"/>
<line x1="84.00" y1="400.00" x2="874.00" y2="400.00" stroke="#dddddd" stroke-width="1" stroke-dasharray="3 4"/><line x1="84.00" y1="328.00" x2="874.00" y2="328.00" stroke="#dddddd" stroke-width="1" stroke-dasharray="3 4"/><line x1="84.00" y1="256.00" x2="874.00" y2="256.00" stroke="#dddddd" stroke-width="1" stroke-dasharray="3 4"/><line x1="84.00" y1="184.00" x2="874.00" y2="184.00" stroke="#dddddd" stroke-width="1" stroke-dasharray="3 4"/><line x1="84.00" y1="112.00" x2="874.00" y2="112.00" stroke="#dddddd" stroke-width="1" stroke-dasharray="3 4"/><line x1="84.00" y1="54.40" x2="874.00" y2="54.40" stroke="#dddddd" stroke-width="1" stroke-dasharray="3 4"/><rect x="84.00" y="40.00" width="790.00" height="360.00" fill="none" stroke="#333333" stroke-width="1.4"/><line x1="123.50" y1="400.00" x2="123.50" y2="405.00" stroke="#333333" stroke-width="1.2"/><text x="123.50" y="418.00" font-family="Helvetica, Arial, sans-serif" font-size="11" fill="#666666" text-anchor="middle" font-weight="normal">5</text><line x1="222.25" y1="400.00" x2="222.25" y2="405.00" stroke="#333333" stroke-width="1.2"/><text x="222.25" y="418.00" font-family="Helvetica, Arial, sans-serif" font-size="11" fill="#666666" text-anchor="middle" font-weight="normal">10</text><line x1="419.75" y1="400.00" x2="419.75" y2="405.00" stroke="#333333" stroke-width="1.2"/><text x="419.75" y="418.00" font-family="Helvetica, Arial, sans-serif" font-size="11" fill="#666666" text-anchor="middle" font-weight="normal">20</text><line x1="558.00" y1="400.00" x2="558.00" y2="405.00" stroke="#333333" stroke-width="1.2"/><text x="558.00" y="418.00" font-family="Helvetica, Arial, sans-serif" font-size="11" fill="#666666" text-anchor="middle" font-weight="normal">27</text><line x1="617.25" y1="400.00" x2="617.25" y2="405.00" stroke="#333333" stroke-width="1.2"/><text x="617.25" y="418.00" font-family="Helvetica, Arial, sans-serif" font-size="11" fill="#666666" text-anchor="middle" font-weight="normal">30</text><line x1="814.75" y1="400.00" x2="814.75" y2="405.00" stroke="#333333" stroke-width="1.2"/><text x="814.75" y="418.00" font-family="Helvetica, Arial, sans-serif" font-size="11" fill="#666666" text-anchor="middle" font-weight="normal">40</text><line x1="79.00" y1="400.00" x2="84.00" y2="400.00" stroke="#333333" stroke-width="1.2"/><text x="75.00" y="404.00" font-family="Helvetica, Arial, sans-serif" font-size="11" fill="#666666" text-anchor="end" font-weight="normal">0</text><line x1="79.00" y1="328.00" x2="84.00" y2="328.00" stroke="#333333" stroke-width="1.2"/><text x="75.00" y="332.00" font-family="Helvetica, Arial, sans-serif" font-size="11" fill="#666666" text-anchor="end" font-weight="normal">25</text><line x1="79.00" y1="256.00" x2="84.00" y2="256.00" stroke="#333333" stroke-width="1.2"/><text x="75.00" y="260.00" font-family="Helvetica, Arial, sans-serif" font-size="11" fill="#666666" text-anchor="end" font-weight="normal">50</text><line x1="79.00" y1="184.00" x2="84.00" y2="184.00" stroke="#333333" stroke-width="1.2"/><text x="75.00" y="188.00" font-family="Helvetica, Arial, sans-serif" font-size="11" fill="#666666" text-anchor="end" font-weight="normal">75</text><line x1="79.00" y1="112.00" x2="84.00" y2="112.00" stroke="#333333" stroke-width="1.2"/><text x="75.00" y="116.00" font-family="Helvetica, Arial, sans-serif" font-size="11" fill="#666666" text-anchor="end" font-weight="normal">100</text><line x1="79.00" y1="54.40" x2="84.00" y2="54.40" stroke="#333333" stroke-width="1.2"/><text x="75.00" y="58.40" font-family="Helvetica, Arial, sans-serif" font-size="11" fill="#666666" text-anchor="end" font-weight="normal">120</text><text x="479.00" y="448.00" font-family="Helvetica, Arial, sans-serif" font-size="13" fill="#222222" text-anchor="middle" font-weight="normal">residue threshold  r</text><text x="22.00" y="220.00" font-family="Helvetica, Arial, sans-serif" font-size="13" fill="#222222" text-anchor="middle" font-weight="normal" transform="rotate(-90 22.00 220.00)">level-induced flag count</text><line x1="558.00" y1="400.00" x2="558.00" y2="40.00" stroke="#b8860b" stroke-width="2" stroke-dasharray="6 4" opacity="1"/><text x="562.00" y="54.40" font-family="Helvetica, Arial, sans-serif" font-size="11.5" fill="#b8860b" text-anchor="start" font-weight="normal">register has 27 units</text><polyline fill="none" points="123.50,88.96 222.25,88.96 419.75,88.96 558.00,88.96 814.75,400.00" stroke="#1f77b4" stroke-width="2.2" opacity="1" stroke-linejoin="round"/><circle cx="123.50" cy="88.96" r="3.6" fill="#1f77b4" stroke="#ffffff" stroke-width="1"/><circle cx="222.25" cy="88.96" r="3.6" fill="#1f77b4" stroke="#ffffff" stroke-width="1"/><circle cx="419.75" cy="88.96" r="3.6" fill="#1f77b4" stroke="#ffffff" stroke-width="1"/><circle cx="558.00" cy="88.96" r="3.6" fill="#1f77b4" stroke="#ffffff" stroke-width="1"/><circle cx="814.75" cy="400.00" r="3.6" fill="#1f77b4" stroke="#ffffff" stroke-width="1"/><text x="91.90" y="60.16" font-family="Helvetica, Arial, sans-serif" font-size="12" fill="#1f77b4" text-anchor="start" font-weight="bold">phi = 0.20</text><polyline fill="none" points="123.50,400.00 222.25,400.00 419.75,400.00 558.00,400.00 814.75,400.00" stroke="#d62728" stroke-width="2.2" opacity="1" stroke-linejoin="round"/><circle cx="123.50" cy="400.00" r="3.6" fill="#d62728" stroke="#ffffff" stroke-width="1"/><circle cx="222.25" cy="400.00" r="3.6" fill="#d62728" stroke="#ffffff" stroke-width="1"/><circle cx="419.75" cy="400.00" r="3.6" fill="#d62728" stroke="#ffffff" stroke-width="1"/><circle cx="558.00" cy="400.00" r="3.6" fill="#d62728" stroke="#ffffff" stroke-width="1"/><circle cx="814.75" cy="400.00" r="3.6" fill="#d62728" stroke="#ffffff" stroke-width="1"/><text x="91.90" y="371.20" font-family="Helvetica, Arial, sans-serif" font-size="12" fill="#d62728" text-anchor="start" font-weight="bold">phi = 0.30</text><text x="91.90" y="77.44" font-family="Helvetica, Arial, sans-serif" font-size="11" fill="#666666" text-anchor="start" font-weight="normal">at r = 40 the corpus residue never reaches r: its maximum is 28 (the register + 1 generic unit)</text><text x="91.90" y="109.12" font-family="Helvetica, Arial, sans-serif" font-size="11.5" fill="#222222" text-anchor="start" font-weight="normal">so 0 at r = 40 is DERIVED, not a small measurement</text>
</svg>
