<?xml version="1.0" encoding="UTF-8"?>
<svg xmlns="http://www.w3.org/2000/svg" width="940" height="470" viewBox="0 0 940 470" role="img" aria-label="A rate is owed over the subset where the test is defined">
<title>A rate is owed over the subset where the test is defined</title>
<rect width="940" height="470" fill="#ffffff"/>
<line x1="84.00" y1="400.00" x2="914.00" y2="400.00" stroke="#dddddd" stroke-width="1" stroke-dasharray="3 4"/><line x1="84.00" y1="319.64" x2="914.00" y2="319.64" stroke="#dddddd" stroke-width="1" stroke-dasharray="3 4"/><line x1="84.00" y1="239.29" x2="914.00" y2="239.29" stroke="#dddddd" stroke-width="1" stroke-dasharray="3 4"/><line x1="84.00" y1="158.93" x2="914.00" y2="158.93" stroke="#dddddd" stroke-width="1" stroke-dasharray="3 4"/><line x1="84.00" y1="78.57" x2="914.00" y2="78.57" stroke="#dddddd" stroke-width="1" stroke-dasharray="3 4"/><rect x="84.00" y="40.00" width="830.00" height="360.00" fill="none" stroke="#333333" stroke-width="1.4"/><line x1="84.00" y1="400.00" x2="84.00" y2="405.00" stroke="#333333" stroke-width="1.2"/><text x="84.00" y="418.00" font-family="Helvetica, Arial, sans-serif" font-size="11" fill="#666666" text-anchor="middle" font-weight="normal">0</text><line x1="242.10" y1="400.00" x2="242.10" y2="405.00" stroke="#333333" stroke-width="1.2"/><text x="242.10" y="418.00" font-family="Helvetica, Arial, sans-serif" font-size="11" fill="#666666" text-anchor="middle" font-weight="normal">0.2</text><line x1="400.19" y1="400.00" x2="400.19" y2="405.00" stroke="#333333" stroke-width="1.2"/><text x="400.19" y="418.00" font-family="Helvetica, Arial, sans-serif" font-size="11" fill="#666666" text-anchor="middle" font-weight="normal">0.4</text><line x1="558.29" y1="400.00" x2="558.29" y2="405.00" stroke="#333333" stroke-width="1.2"/><text x="558.29" y="418.00" font-family="Helvetica, Arial, sans-serif" font-size="11" fill="#666666" text-anchor="middle" font-weight="normal">0.6</text><line x1="716.38" y1="400.00" x2="716.38" y2="405.00" stroke="#333333" stroke-width="1.2"/><text x="716.38" y="418.00" font-family="Helvetica, Arial, sans-serif" font-size="11" fill="#666666" text-anchor="middle" font-weight="normal">0.8</text><line x1="874.48" y1="400.00" x2="874.48" y2="405.00" stroke="#333333" stroke-width="1.2"/><text x="874.48" y="418.00" font-family="Helvetica, Arial, sans-serif" font-size="11" fill="#666666" text-anchor="middle" font-weight="normal">1</text><line x1="79.00" y1="400.00" x2="84.00" y2="400.00" stroke="#333333" stroke-width="1.2"/><text x="75.00" y="404.00" font-family="Helvetica, Arial, sans-serif" font-size="11" fill="#666666" text-anchor="end" font-weight="normal">0</text><line x1="79.00" y1="319.64" x2="84.00" y2="319.64" stroke="#333333" stroke-width="1.2"/><text x="75.00" y="323.64" font-family="Helvetica, Arial, sans-serif" font-size="11" fill="#666666" text-anchor="end" font-weight="normal">0.25</text><line x1="79.00" y1="239.29" x2="84.00" y2="239.29" stroke="#333333" stroke-width="1.2"/><text x="75.00" y="243.29" font-family="Helvetica, Arial, sans-serif" font-size="11" fill="#666666" text-anchor="end" font-weight="normal">0.5</text><line x1="79.00" y1="158.93" x2="84.00" y2="158.93" stroke="#333333" stroke-width="1.2"/><text x="75.00" y="162.93" font-family="Helvetica, Arial, sans-serif" font-size="11" fill="#666666" text-anchor="end" font-weight="normal">0.75</text><line x1="79.00" y1="78.57" x2="84.00" y2="78.57" stroke="#333333" stroke-width="1.2"/><text x="75.00" y="82.57" font-family="Helvetica, Arial, sans-serif" font-size="11" fill="#666666" text-anchor="end" font-weight="normal">1</text><text x="499.00" y="448.00" font-family="Helvetica, Arial, sans-serif" font-size="13" fill="#222222" text-anchor="middle" font-weight="normal">register prevalence in the community  phi</text><text x="22.00" y="220.00" font-family="Helvetica, Arial, sans-serif" font-size="13" fill="#222222" text-anchor="middle" font-weight="normal" transform="rotate(-90 22.00 220.00)">level-induced rate
over the ELIGIBLE subset</text><polyline fill="none" points="123.52,78.57 163.05,78.57 242.10,78.57 321.14,400.00 874.48,400.00" stroke="#1f77b4" stroke-width="2.4" opacity="1" stroke-linejoin="round"/><circle cx="123.52" cy="78.57" r="3.6" fill="#1f77b4" stroke="#ffffff" stroke-width="1"/><circle cx="163.05" cy="78.57" r="3.6" fill="#1f77b4" stroke="#ffffff" stroke-width="1"/><circle cx="242.10" cy="78.57" r="3.6" fill="#1f77b4" stroke="#ffffff" stroke-width="1"/><circle cx="321.14" cy="400.00" r="3.6" fill="#1f77b4" stroke="#ffffff" stroke-width="1"/><circle cx="874.48" cy="400.00" r="3.6" fill="#1f77b4" stroke="#ffffff" stroke-width="1"/><text x="107.71" y="49.64" font-family="Helvetica, Arial, sans-serif" font-size="12" fill="#1f77b4" text-anchor="start" font-weight="bold">affected subpopulation (both members carry the register)</text><polyline fill="none" points="242.10,78.57 321.14,400.00 874.48,400.00" stroke="#9467bd" stroke-width="2.4" opacity="1" stroke-linejoin="round"/><circle cx="242.10" cy="78.57" r="3.6" fill="#9467bd" stroke="#ffffff" stroke-width="1"/><circle cx="321.14" cy="400.00" r="3.6" fill="#9467bd" stroke="#ffffff" stroke-width="1"/><circle cx="874.48" cy="400.00" r="3.6" fill="#9467bd" stroke="#ffffff" stroke-width="1"/><text x="84.00" y="393.57" font-family="Helvetica, Arial, sans-serif" font-size="10" fill="#9467bd" text-anchor="middle" font-weight="normal" transform="rotate(-90 84.00 393.57)">undef</text><text x="123.52" y="393.57" font-family="Helvetica, Arial, sans-serif" font-size="10" fill="#9467bd" text-anchor="middle" font-weight="normal" transform="rotate(-90 123.52 393.57)">undef</text><text x="163.05" y="393.57" font-family="Helvetica, Arial, sans-serif" font-size="10" fill="#9467bd" text-anchor="middle" font-weight="normal" transform="rotate(-90 163.05 393.57)">undef</text><text x="107.71" y="68.93" font-family="Helvetica, Arial, sans-serif" font-size="12" fill="#9467bd" text-anchor="start" font-weight="bold">community population (random pairs)</text><text x="107.71" y="175.00" font-family="Helvetica, Arial, sans-serif" font-size="11" fill="#222222" text-anchor="start" font-weight="normal">at phi = 0.20 the affected rate is 1.000 and the community rate is the same effect diluted by 0.025</text><text x="107.71" y="207.14" font-family="Helvetica, Arial, sans-serif" font-size="11" fill="#666666" text-anchor="start" font-weight="normal">an empty denominator is written 'undef', never plotted as 0.000</text>
</svg>
